<svg width="129" height="20" viewBox="0 0 129 20" fill="none" xmlns="http://www.w3.org/2000/svg">
<path d="M1.96395 2.86H2.66595C3.44595 2.86 3.80995 2.496 3.80995 1.742V1.118C3.80995 0.364 3.44595 0 2.66595 0H1.96395C1.18395 0 0.793945 0.364 0.793945 1.118V1.742C0.793945 2.496 1.18395 2.86 1.96395 2.86ZM0.897945 17.888C0.897945 18.642 1.28795 19.032 2.06795 19.032H2.56195C3.34195 19.032 3.70595 18.642 3.70595 17.888V7.488C3.70595 6.734 3.34195 6.344 2.56195 6.344H2.06795C1.28795 6.344 0.897945 6.734 0.897945 7.488V17.888Z" fill="#6A84ED" fill-opacity="0.7"/>
<path d="M6.4849 17.888C6.4849 18.642 6.8749 19.032 7.6549 19.032H8.1489C8.9289 19.032 9.2929 18.642 9.2929 17.888V12.402C9.2929 9.906 10.6449 8.32 12.4649 8.32C14.1029 8.32 15.1689 9.178 15.1689 11.7V17.888C15.1689 18.642 15.5589 19.032 16.3129 19.032H16.8329C17.6129 19.032 17.9769 18.642 17.9769 17.888V11.336C17.9769 7.384 15.7409 6.032 13.2189 6.032C11.3729 6.032 10.0209 6.76 9.2929 8.19H9.1889V7.436C9.1629 6.708 8.8249 6.344 8.0969 6.344H7.5769C6.8489 6.344 6.4849 6.708 6.4849 7.436V17.888Z" fill="#6A84ED" fill-opacity="0.7"/>
<path d="M25.6152 15.08C25.6152 17.81 26.8112 19.032 29.5672 19.032H30.7112C31.3352 19.032 31.6732 18.72 31.6732 18.07V17.654C31.6732 17.004 31.3352 16.692 30.7112 16.692H30.0872C28.8912 16.692 28.4232 16.25 28.4232 14.95V8.528H30.7892C31.3872 8.528 31.6732 8.242 31.6732 7.644V7.228C31.6732 6.63 31.3872 6.344 30.7892 6.344H28.4232V3.64C28.4232 2.886 28.0332 2.496 27.2792 2.496H26.7592C26.0052 2.496 25.6152 2.886 25.6152 3.64V6.344H24.1072C23.5092 6.344 23.2232 6.63 23.2232 7.228V7.644C23.2232 8.242 23.5092 8.528 24.1072 8.528H25.6152V15.08Z" fill="#6A84ED" fill-opacity="0.7"/>
<path d="M33.1481 17.888C33.1481 18.642 33.5381 19.032 34.3181 19.032H34.8121C35.5921 19.032 35.9561 18.642 35.9561 17.888V12.402C35.9561 9.906 37.3081 8.32 39.1281 8.32C40.7661 8.32 41.8321 9.178 41.8321 11.7V17.888C41.8321 18.642 42.2221 19.032 42.9761 19.032H43.4961C44.2761 19.032 44.6401 18.642 44.6401 17.888V11.336C44.6401 7.384 42.4041 6.032 39.8821 6.032C38.0361 6.032 36.6841 6.76 35.9561 8.19H35.8521C35.9561 6.526 35.9561 4.784 35.9561 3.926V1.144C35.9561 0.390001 35.5921 0 34.8121 0H34.3181C33.5381 0 33.1481 0.390001 33.1481 1.144V17.888Z" fill="#6A84ED" fill-opacity="0.7"/>
<path d="M46.3055 12.714C46.3055 16.874 48.6195 19.344 52.6755 19.344C55.2495 19.344 57.0955 18.2 57.9795 16.406C58.2915 15.86 58.1355 15.158 57.2515 15.158H56.4195C55.8995 15.158 55.6395 15.392 55.3275 15.86C54.8595 16.588 54.0795 17.108 52.7275 17.108C50.6475 17.108 49.3475 15.6 49.2175 13.156H57.3295C58.1095 13.156 58.4735 12.766 58.4735 11.986C58.4735 8.268 56.1075 6.032 52.6235 6.032C48.9835 6.032 46.3055 8.684 46.3055 12.714ZM49.3475 11.258C49.7375 9.334 50.9855 8.216 52.6235 8.216C54.3915 8.216 55.4575 9.152 55.6915 11.258H49.3475Z" fill="#6A84ED" fill-opacity="0.7"/>
<path d="M65.9274 17.81C66.1874 18.616 66.4474 19.032 67.2014 19.032H68.7874C69.5414 19.032 69.8014 18.668 69.9834 17.94L72.3234 9.23H72.4274L74.7414 17.94C74.9234 18.668 75.1834 19.032 75.9634 19.032H77.5234C78.2774 19.032 78.5374 18.616 78.7974 17.81L81.6314 7.592C81.8654 6.812 81.4754 6.344 80.6954 6.344H80.1494C79.3954 6.344 79.1094 6.734 78.9014 7.566L76.7434 16.172H76.6654L74.2474 7.436C74.0394 6.708 73.8054 6.344 73.1294 6.344H71.7254C71.0234 6.344 70.7894 6.708 70.5814 7.436L68.1894 16.172H68.0854L65.9274 7.566C65.6934 6.734 65.4334 6.344 64.6794 6.344H64.0034C63.2234 6.344 62.8334 6.812 63.0674 7.592L65.9274 17.81Z" fill="#6A84ED"/>
<path d="M81.9223 12.688C81.9223 16.822 84.4703 19.344 88.3963 19.344C92.1663 19.344 94.8703 16.796 94.8703 12.688C94.8703 8.554 92.3483 6.032 88.3963 6.032C84.6523 6.032 81.9223 8.58 81.9223 12.688ZM84.8343 12.688C84.8343 10.036 86.2643 8.294 88.3963 8.294C90.5283 8.294 91.9583 9.932 91.9583 12.688C91.9583 15.34 90.5283 17.082 88.3963 17.082C86.2643 17.082 84.8343 15.34 84.8343 12.688Z" fill="#6A84ED"/>
<path d="M96.7722 17.888C96.7722 18.642 97.1622 19.032 97.9422 19.032H98.4362C99.2162 19.032 99.5802 18.642 99.5802 17.888V12.35C99.5802 10.426 100.49 8.606 102.388 8.606C102.934 8.606 103.298 8.788 103.662 8.788C103.974 8.736 104.156 8.528 104.26 8.06L104.468 7.202C104.598 6.526 104.234 6.188 103.636 6.084C103.428 6.058 103.142 6.032 102.908 6.032C101.296 6.032 100.178 6.864 99.5542 8.216H99.4762V7.436C99.4762 6.708 99.1122 6.344 98.3842 6.344H97.8642C97.1362 6.344 96.7722 6.708 96.7722 7.436V17.888Z" fill="#6A84ED"/>
<path d="M105.533 17.888C105.533 18.642 105.923 19.032 106.703 19.032H107.197C107.977 19.032 108.341 18.642 108.341 17.888V15.366L110.135 13.416L113.177 17.888C113.723 18.642 113.983 19.032 114.763 19.032H115.725C116.505 19.032 116.843 18.486 116.349 17.732L112.007 11.44L115.647 7.54C116.219 6.916 115.907 6.344 115.127 6.344H114.347C113.593 6.344 113.203 6.682 112.501 7.436L108.341 12.038V1.144C108.341 0.390001 107.977 0 107.197 0H106.703C105.923 0 105.533 0.390001 105.533 1.144V17.888Z" fill="#6A84ED"/>
<path d="M116.863 16.38C117.383 18.356 119.567 19.344 122.297 19.344C125.677 19.344 128.017 17.966 128.017 15.184C128.017 12.792 126.275 12.012 124.273 11.674L121.933 11.258C120.425 11.024 119.827 10.556 119.827 9.698C119.827 8.58 120.919 8.06 122.401 8.06C123.623 8.06 124.481 8.476 124.975 9.308C125.209 9.698 125.443 9.958 126.015 9.958H126.717C127.419 9.958 127.809 9.568 127.601 8.892C127.107 6.916 124.923 6.032 122.401 6.032C119.411 6.032 117.123 7.436 117.123 10.01C117.123 12.428 118.995 13.234 120.945 13.546L123.285 13.936C124.559 14.144 125.209 14.534 125.209 15.522C125.209 16.692 124.247 17.316 122.297 17.316C120.945 17.316 120.165 17.004 119.515 15.886C119.281 15.522 118.969 15.314 118.397 15.314H117.747C117.045 15.314 116.655 15.704 116.863 16.38Z" fill="#6A84ED"/>
</svg>
