<svg width="138" height="19" viewBox="0 0 138 19" fill="none" xmlns="http://www.w3.org/2000/svg">
<g clip-path="url(#clip0)">
<path d="M3.964 2.828H4.666C5.446 2.828 5.81 2.464 5.81 1.71V1.086C5.81 0.331999 5.446 -0.0320014 4.666 -0.0320014H3.964C3.184 -0.0320014 2.794 0.331999 2.794 1.086V1.71C2.794 2.464 3.184 2.828 3.964 2.828ZM2.898 17.856C2.898 18.61 3.288 19 4.068 19H4.562C5.342 19 5.706 18.61 5.706 17.856V7.456C5.706 6.702 5.342 6.312 4.562 6.312H4.068C3.288 6.312 2.898 6.702 2.898 7.456V17.856ZM9.00495 17.856C9.00495 18.61 9.39495 19 10.175 19H10.669C11.449 19 11.813 18.61 11.813 17.856V12.37C11.813 9.874 13.165 8.288 14.985 8.288C16.623 8.288 17.689 9.146 17.689 11.668V17.856C17.689 18.61 18.079 19 18.833 19H19.353C20.133 19 20.497 18.61 20.497 17.856V11.304C20.497 7.352 18.261 6 15.739 6C13.893 6 12.541 6.728 11.813 8.158H11.709V7.404C11.683 6.676 11.345 6.312 10.617 6.312H10.097C9.36895 6.312 9.00495 6.676 9.00495 7.404V17.856ZM29.1753 15.048C29.1753 17.778 30.3713 19 33.1273 19H34.2713C34.8953 19 35.2333 18.688 35.2333 18.038V17.622C35.2333 16.972 34.8953 16.66 34.2713 16.66H33.6473C32.4513 16.66 31.9833 16.218 31.9833 14.918V8.496H34.3493C34.9473 8.496 35.2333 8.21 35.2333 7.612V7.196C35.2333 6.598 34.9473 6.312 34.3493 6.312H31.9833V3.608C31.9833 2.854 31.5933 2.464 30.8393 2.464H30.3193C29.5653 2.464 29.1753 2.854 29.1753 3.608V6.312H27.6673C27.0693 6.312 26.7833 6.598 26.7833 7.196V7.612C26.7833 8.21 27.0693 8.496 27.6673 8.496H29.1753V15.048ZM37.2282 17.856C37.2282 18.61 37.6182 19 38.3982 19H38.8922C39.6722 19 40.0362 18.61 40.0362 17.856V12.37C40.0362 9.874 41.3882 8.288 43.2082 8.288C44.8462 8.288 45.9122 9.146 45.9122 11.668V17.856C45.9122 18.61 46.3022 19 47.0562 19H47.5762C48.3562 19 48.7202 18.61 48.7202 17.856V11.304C48.7202 7.352 46.4842 6 43.9622 6C42.1162 6 40.7642 6.728 40.0362 8.158H39.9322C40.0362 6.494 40.0362 4.752 40.0362 3.894V1.112C40.0362 0.358 39.6722 -0.0320014 38.8922 -0.0320014H38.3982C37.6182 -0.0320014 37.2282 0.358 37.2282 1.112V17.856ZM50.9056 12.682C50.9056 16.842 53.2196 19.312 57.2756 19.312C59.8496 19.312 61.6956 18.168 62.5796 16.374C62.8916 15.828 62.7356 15.126 61.8516 15.126H61.0196C60.4996 15.126 60.2396 15.36 59.9276 15.828C59.4596 16.556 58.6796 17.076 57.3276 17.076C55.2476 17.076 53.9476 15.568 53.8176 13.124H61.9296C62.7096 13.124 63.0736 12.734 63.0736 11.954C63.0736 8.236 60.7076 6 57.2236 6C53.5836 6 50.9056 8.652 50.9056 12.682ZM53.9476 11.226C54.3376 9.302 55.5856 8.184 57.2236 8.184C58.9916 8.184 60.0576 9.12 60.2916 11.226H53.9476ZM71.9329 17.778C72.1929 18.584 72.4529 19 73.2069 19H74.7929C75.5469 19 75.8069 18.636 75.9889 17.908L78.3289 9.198H78.4329L80.7469 17.908C80.9289 18.636 81.1889 19 81.9689 19H83.5289C84.2829 19 84.5429 18.584 84.8029 17.778L87.6369 7.56C87.8709 6.78 87.4809 6.312 86.7009 6.312H86.1549C85.4009 6.312 85.1149 6.702 84.9069 7.534L82.7489 16.14H82.6709L80.2529 7.404C80.0449 6.676 79.8109 6.312 79.1349 6.312H77.7309C77.0289 6.312 76.7949 6.676 76.5869 7.404L74.1949 16.14H74.0909L71.9329 7.534C71.6989 6.702 71.4389 6.312 70.6849 6.312H70.0089C69.2289 6.312 68.8389 6.78 69.0729 7.56L71.9329 17.778ZM88.4477 12.656C88.4477 16.79 90.9957 19.312 94.9217 19.312C98.6917 19.312 101.396 16.764 101.396 12.656C101.396 8.522 98.8737 6 94.9217 6C91.1777 6 88.4477 8.548 88.4477 12.656ZM91.3597 12.656C91.3597 10.004 92.7897 8.262 94.9217 8.262C97.0537 8.262 98.4837 9.9 98.4837 12.656C98.4837 15.308 97.0537 17.05 94.9217 17.05C92.7897 17.05 91.3597 15.308 91.3597 12.656ZM103.818 17.856C103.818 18.61 104.208 19 104.988 19H105.482C106.262 19 106.626 18.61 106.626 17.856V12.318C106.626 10.394 107.536 8.574 109.434 8.574C109.98 8.574 110.344 8.756 110.708 8.756C111.02 8.704 111.202 8.496 111.306 8.028L111.514 7.17C111.644 6.494 111.28 6.156 110.682 6.052C110.474 6.026 110.188 6 109.954 6C108.342 6 107.224 6.832 106.6 8.184H106.522V7.404C106.522 6.676 106.158 6.312 105.43 6.312H104.91C104.182 6.312 103.818 6.676 103.818 7.404V17.856ZM113.098 17.856C113.098 18.61 113.488 19 114.268 19H114.762C115.542 19 115.906 18.61 115.906 17.856V15.334L117.7 13.384L120.742 17.856C121.288 18.61 121.548 19 122.328 19H123.29C124.07 19 124.408 18.454 123.914 17.7L119.572 11.408L123.212 7.508C123.784 6.884 123.472 6.312 122.692 6.312H121.912C121.158 6.312 120.768 6.65 120.066 7.404L115.906 12.006V1.112C115.906 0.358 115.542 -0.0320014 114.762 -0.0320014H114.268C113.488 -0.0320014 113.098 0.358 113.098 1.112V17.856ZM124.948 16.348C125.468 18.324 127.652 19.312 130.382 19.312C133.762 19.312 136.102 17.934 136.102 15.152C136.102 12.76 134.36 11.98 132.358 11.642L130.018 11.226C128.51 10.992 127.912 10.524 127.912 9.666C127.912 8.548 129.004 8.028 130.486 8.028C131.708 8.028 132.566 8.444 133.06 9.276C133.294 9.666 133.528 9.926 134.1 9.926H134.802C135.504 9.926 135.894 9.536 135.686 8.86C135.192 6.884 133.008 6 130.486 6C127.496 6 125.208 7.404 125.208 9.978C125.208 12.396 127.08 13.202 129.03 13.514L131.37 13.904C132.644 14.112 133.294 14.502 133.294 15.49C133.294 16.66 132.332 17.284 130.382 17.284C129.03 17.284 128.25 16.972 127.6 15.854C127.366 15.49 127.054 15.282 126.482 15.282H125.832C125.13 15.282 124.74 15.672 124.948 16.348Z" fill="#6A84ED"/>
</g>
<defs>
<clipPath id="clip0">
<rect width="138" height="19" fill="white"/>
</clipPath>
</defs>
</svg>
