<svg width="137" height="31" viewBox="0 0 137 31" fill="none" xmlns="http://www.w3.org/2000/svg">
<path d="M2.964 5.828H3.666C4.446 5.828 4.81 5.464 4.81 4.71V4.086C4.81 3.332 4.446 2.968 3.666 2.968H2.964C2.184 2.968 1.794 3.332 1.794 4.086V4.71C1.794 5.464 2.184 5.828 2.964 5.828ZM1.898 20.856C1.898 21.61 2.288 22 3.068 22H3.562C4.342 22 4.706 21.61 4.706 20.856V10.456C4.706 9.702 4.342 9.312 3.562 9.312H3.068C2.288 9.312 1.898 9.702 1.898 10.456V20.856ZM8.00495 20.856C8.00495 21.61 8.39495 22 9.17495 22H9.66895C10.449 22 10.813 21.61 10.813 20.856V15.37C10.813 12.874 12.165 11.288 13.985 11.288C15.623 11.288 16.689 12.146 16.689 14.668V20.856C16.689 21.61 17.079 22 17.833 22H18.353C19.133 22 19.497 21.61 19.497 20.856V14.304C19.497 10.352 17.261 9 14.739 9C12.893 9 11.541 9.728 10.813 11.158H10.709V10.404C10.683 9.676 10.345 9.312 9.61695 9.312H9.09695C8.36895 9.312 8.00495 9.676 8.00495 10.404V20.856ZM28.1753 18.048C28.1753 20.778 29.3713 22 32.1273 22H33.2713C33.8953 22 34.2333 21.688 34.2333 21.038V20.622C34.2333 19.972 33.8953 19.66 33.2713 19.66H32.6473C31.4513 19.66 30.9833 19.218 30.9833 17.918V11.496H33.3493C33.9473 11.496 34.2333 11.21 34.2333 10.612V10.196C34.2333 9.598 33.9473 9.312 33.3493 9.312H30.9833V6.608C30.9833 5.854 30.5933 5.464 29.8393 5.464H29.3193C28.5653 5.464 28.1753 5.854 28.1753 6.608V9.312H26.6673C26.0693 9.312 25.7833 9.598 25.7833 10.196V10.612C25.7833 11.21 26.0693 11.496 26.6673 11.496H28.1753V18.048ZM36.2282 20.856C36.2282 21.61 36.6182 22 37.3982 22H37.8922C38.6722 22 39.0362 21.61 39.0362 20.856V15.37C39.0362 12.874 40.3882 11.288 42.2082 11.288C43.8462 11.288 44.9122 12.146 44.9122 14.668V20.856C44.9122 21.61 45.3022 22 46.0562 22H46.5762C47.3562 22 47.7202 21.61 47.7202 20.856V14.304C47.7202 10.352 45.4842 9 42.9622 9C41.1162 9 39.7642 9.728 39.0362 11.158H38.9322C39.0362 9.494 39.0362 7.752 39.0362 6.894V4.112C39.0362 3.358 38.6722 2.968 37.8922 2.968H37.3982C36.6182 2.968 36.2282 3.358 36.2282 4.112V20.856ZM49.9056 15.682C49.9056 19.842 52.2196 22.312 56.2756 22.312C58.8496 22.312 60.6956 21.168 61.5796 19.374C61.8916 18.828 61.7356 18.126 60.8516 18.126H60.0196C59.4996 18.126 59.2396 18.36 58.9276 18.828C58.4596 19.556 57.6796 20.076 56.3276 20.076C54.2476 20.076 52.9476 18.568 52.8176 16.124H60.9296C61.7096 16.124 62.0736 15.734 62.0736 14.954C62.0736 11.236 59.7076 9 56.2236 9C52.5836 9 49.9056 11.652 49.9056 15.682ZM52.9476 14.226C53.3376 12.302 54.5856 11.184 56.2236 11.184C57.9916 11.184 59.0576 12.12 59.2916 14.226H52.9476ZM70.9329 20.778C71.1929 21.584 71.4529 22 72.2069 22H73.7929C74.5469 22 74.8069 21.636 74.9889 20.908L77.3289 12.198H77.4329L79.7469 20.908C79.9289 21.636 80.1889 22 80.9689 22H82.5289C83.2829 22 83.5429 21.584 83.8029 20.778L86.6369 10.56C86.8709 9.78 86.4809 9.312 85.7009 9.312H85.1549C84.4009 9.312 84.1149 9.702 83.9069 10.534L81.7489 19.14H81.6709L79.2529 10.404C79.0449 9.676 78.8109 9.312 78.1349 9.312H76.7309C76.0289 9.312 75.7949 9.676 75.5869 10.404L73.1949 19.14H73.0909L70.9329 10.534C70.6989 9.702 70.4389 9.312 69.6849 9.312H69.0089C68.2289 9.312 67.8389 9.78 68.0729 10.56L70.9329 20.778ZM87.4477 15.656C87.4477 19.79 89.9957 22.312 93.9217 22.312C97.6917 22.312 100.396 19.764 100.396 15.656C100.396 11.522 97.8737 9 93.9217 9C90.1777 9 87.4477 11.548 87.4477 15.656ZM90.3597 15.656C90.3597 13.004 91.7897 11.262 93.9217 11.262C96.0537 11.262 97.4837 12.9 97.4837 15.656C97.4837 18.308 96.0537 20.05 93.9217 20.05C91.7897 20.05 90.3597 18.308 90.3597 15.656ZM102.818 20.856C102.818 21.61 103.208 22 103.988 22H104.482C105.262 22 105.626 21.61 105.626 20.856V15.318C105.626 13.394 106.536 11.574 108.434 11.574C108.98 11.574 109.344 11.756 109.708 11.756C110.02 11.704 110.202 11.496 110.306 11.028L110.514 10.17C110.644 9.494 110.28 9.156 109.682 9.052C109.474 9.026 109.188 9 108.954 9C107.342 9 106.224 9.832 105.6 11.184H105.522V10.404C105.522 9.676 105.158 9.312 104.43 9.312H103.91C103.182 9.312 102.818 9.676 102.818 10.404V20.856ZM112.098 20.856C112.098 21.61 112.488 22 113.268 22H113.762C114.542 22 114.906 21.61 114.906 20.856V18.334L116.7 16.384L119.742 20.856C120.288 21.61 120.548 22 121.328 22H122.29C123.07 22 123.408 21.454 122.914 20.7L118.572 14.408L122.212 10.508C122.784 9.884 122.472 9.312 121.692 9.312H120.912C120.158 9.312 119.768 9.65 119.066 10.404L114.906 15.006V4.112C114.906 3.358 114.542 2.968 113.762 2.968H113.268C112.488 2.968 112.098 3.358 112.098 4.112V20.856ZM123.948 19.348C124.468 21.324 126.652 22.312 129.382 22.312C132.762 22.312 135.102 20.934 135.102 18.152C135.102 15.76 133.36 14.98 131.358 14.642L129.018 14.226C127.51 13.992 126.912 13.524 126.912 12.666C126.912 11.548 128.004 11.028 129.486 11.028C130.708 11.028 131.566 11.444 132.06 12.276C132.294 12.666 132.528 12.926 133.1 12.926H133.802C134.504 12.926 134.894 12.536 134.686 11.86C134.192 9.884 132.008 9 129.486 9C126.496 9 124.208 10.404 124.208 12.978C124.208 15.396 126.08 16.202 128.03 16.514L130.37 16.904C131.644 17.112 132.294 17.502 132.294 18.49C132.294 19.66 131.332 20.284 129.382 20.284C128.03 20.284 127.25 19.972 126.6 18.854C126.366 18.49 126.054 18.282 125.482 18.282H124.832C124.13 18.282 123.74 18.672 123.948 19.348Z" fill="#1D1C39"/>
</svg>
