<svg width="153" height="32" viewBox="0 0 153 32" fill="none" xmlns="http://www.w3.org/2000/svg">
<path d="M42.618 10.536H43.3C44.07 10.536 44.466 10.206 44.466 9.436V9.018C44.466 8.248 44.07 7.896 43.3 7.896H42.618C41.848 7.896 41.452 8.248 41.452 9.018V9.436C41.452 10.206 41.848 10.536 42.618 10.536ZM41.54 22.834C41.54 23.604 41.936 24 42.706 24H43.212C43.982 24 44.378 23.604 44.378 22.834V14.43C44.378 13.66 43.982 13.264 43.212 13.264H42.706C41.936 13.264 41.54 13.66 41.54 14.43V22.834ZM46.4582 22.834C46.4582 23.604 46.8542 24 47.6242 24H48.1302C48.9002 24 49.2962 23.604 49.2962 22.834V18.324C49.2962 16.388 50.3302 15.2 51.7602 15.2C53.0142 15.2 53.8502 15.86 53.8502 17.84V22.834C53.8502 23.604 54.2462 24 55.0162 24H55.5222C56.2922 24 56.6882 23.604 56.6882 22.834V17.488C56.6882 14.144 54.7522 13 52.5522 13C51.0562 13 49.8682 13.616 49.2522 14.804H49.1642V14.342C49.1642 13.638 48.7902 13.264 48.0642 13.264H47.5802C46.8322 13.264 46.4582 13.638 46.4582 14.364V22.834ZM62.8781 20.458C62.8781 22.988 63.8461 24 66.4201 24H67.4321C68.0481 24 68.3561 23.692 68.3561 23.054V22.658C68.3561 22.042 68.0481 21.712 67.4321 21.712H66.9921C66.0241 21.712 65.6941 21.404 65.6941 20.348V15.376H67.4981C68.0701 15.376 68.3561 15.09 68.3561 14.518V14.122C68.3561 13.55 68.0701 13.264 67.4981 13.264H65.6941V11.174C65.6941 10.404 65.3201 10.008 64.5501 10.008H64.0441C63.2741 10.008 62.8781 10.404 62.8781 11.174V13.264H61.7121C61.1401 13.264 60.8541 13.55 60.8541 14.122V14.518C60.8541 15.09 61.1401 15.376 61.7121 15.376H62.8781V20.458ZM69.4413 22.834C69.4413 23.604 69.8373 24 70.6073 24H71.1133C71.8833 24 72.2793 23.604 72.2793 22.834V18.324C72.2793 16.388 73.3133 15.2 74.7433 15.2C75.9973 15.2 76.8333 15.86 76.8333 17.84V22.834C76.8333 23.604 77.2293 24 77.9993 24H78.5053C79.2753 24 79.6713 23.604 79.6713 22.834V17.488C79.6713 14.144 77.7353 13 75.5353 13C74.0393 13 72.8513 13.616 72.2353 14.804H72.1473C72.2793 13.374 72.2793 11.922 72.2793 11.196V9.062C72.2793 8.292 71.8833 7.896 71.1133 7.896H70.6073C69.8373 7.896 69.4413 8.292 69.4413 9.062V22.834ZM80.8732 18.676C80.8732 22.262 82.9412 24.264 86.4832 24.264C88.8152 24.264 90.3332 23.362 91.1033 21.91C91.4772 21.36 91.2792 20.7 90.4432 20.7H89.5412C89.0572 20.7 88.8372 20.92 88.5512 21.272C88.1552 21.778 87.6052 22.152 86.5492 22.152C84.9212 22.152 83.9092 21.052 83.7772 19.138H90.4652C91.2352 19.138 91.6313 18.764 91.6313 17.972C91.6313 14.914 89.5632 13 86.4612 13C83.2052 13 80.8732 15.2 80.8732 18.676ZM83.8652 17.378C84.1952 15.882 85.1632 15.046 86.4612 15.046C87.8692 15.046 88.6832 15.772 88.8812 17.378H83.8652ZM97.9303 22.79C98.1503 23.604 98.4143 24 99.1843 24H100.746C101.428 24 101.67 23.67 101.824 23.01L103.628 16.212H103.716L105.52 23.01C105.674 23.67 105.938 24 106.598 24H108.16C108.93 24 109.172 23.604 109.414 22.79L111.746 14.474C111.988 13.704 111.592 13.264 110.822 13.264H110.25C109.48 13.264 109.238 13.66 109.04 14.474L107.368 21.162H107.28L105.388 14.254C105.212 13.594 104.97 13.264 104.354 13.264H103.078C102.462 13.264 102.242 13.594 102.044 14.254L100.152 21.162H100.064L98.3923 14.474C98.1943 13.66 97.9523 13.264 97.1823 13.264H96.5003C95.7303 13.264 95.3563 13.704 95.5763 14.474L97.9303 22.79ZM111.785 18.632C111.785 22.196 114.051 24.264 117.483 24.264C120.761 24.264 123.159 22.152 123.159 18.632C123.159 15.068 120.893 13 117.483 13C114.183 13 111.785 15.112 111.785 18.632ZM114.711 18.632C114.711 16.498 115.811 15.178 117.483 15.178C119.155 15.178 120.233 16.454 120.233 18.632C120.233 20.766 119.155 22.108 117.483 22.108C115.811 22.108 114.711 20.766 114.711 18.632ZM124.54 22.834C124.54 23.604 124.936 24 125.706 24H126.212C126.982 24 127.378 23.604 127.378 22.834V18.478C127.378 16.894 128.104 15.53 129.71 15.53C130.15 15.53 130.458 15.662 130.766 15.64C131.118 15.552 131.25 15.31 131.338 14.87L131.47 14.078C131.58 13.418 131.25 13.088 130.634 13.044C130.524 13.022 130.304 13 130.15 13C128.786 13 127.84 13.726 127.312 14.848H127.246V14.364C127.246 13.638 126.894 13.264 126.146 13.264H125.662C124.914 13.264 124.54 13.638 124.54 14.364V22.834ZM132.208 22.834C132.208 23.604 132.604 24 133.374 24H133.88C134.65 24 135.046 23.604 135.046 22.834V21.008L136.41 19.556L138.654 22.834C139.182 23.604 139.446 24 140.216 24H141.184C141.954 24 142.328 23.472 141.822 22.768L138.258 17.576L141.206 14.452C141.778 13.836 141.47 13.264 140.7 13.264H139.974C139.204 13.264 138.83 13.55 138.104 14.342L135.046 17.73V9.062C135.046 8.292 134.65 7.896 133.88 7.896H133.374C132.604 7.896 132.208 8.292 132.208 9.062V22.834ZM142.116 21.888C142.622 23.494 144.514 24.264 146.912 24.264C149.882 24.264 151.994 23.098 151.994 20.678C151.994 18.588 150.388 17.906 148.65 17.62L146.714 17.312C145.46 17.114 145.02 16.762 145.02 16.102C145.02 15.31 145.79 14.892 146.978 14.892C147.968 14.892 148.584 15.222 148.98 15.816C149.2 16.124 149.42 16.388 149.992 16.388H150.74C151.444 16.388 151.818 15.992 151.554 15.288C151.048 13.748 149.222 13 147 13C144.272 13 142.292 14.188 142.292 16.476C142.292 18.478 143.788 19.204 145.636 19.512L147.594 19.82C148.628 19.996 149.178 20.26 149.178 21.052C149.178 21.91 148.386 22.372 146.912 22.372C145.746 22.372 145.174 22.086 144.69 21.294C144.492 21.008 144.184 20.788 143.634 20.788H142.886C142.226 20.788 141.874 21.184 142.116 21.888Z" fill="#1D1C39"/>
<circle cx="16" cy="16" r="14.5" stroke="#1D1C39" stroke-width="3"/>
</svg>
