<svg width="14" height="14" viewBox="0 0 14 14" fill="none" xmlns="http://www.w3.org/2000/svg">
<path d="M13.2706 13.2706C13.5706 12.9706 13.5706 12.5206 13.2706 12.2206L9.4456 8.3956C11.1706 6.0706 10.7206 2.7706 8.3956 1.0456C6.0706 -0.679402 2.7706 -0.229402 1.0456 2.0956C-0.679402 4.4206 -0.229402 7.7206 2.0956 9.4456C3.9706 10.8706 6.5206 10.8706 8.3956 9.4456L12.2206 13.2706C12.5206 13.5706 12.9706 13.5706 13.2706 13.2706ZM1.4956 5.2456C1.4956 3.1456 3.1456 1.4956 5.2456 1.4956C7.3456 1.4956 8.9956 3.1456 8.9956 5.2456C8.9956 7.3456 7.3456 8.9956 5.2456 8.9956C3.1456 8.9956 1.4956 7.3456 1.4956 5.2456Z" fill="#403E7F"/>
</svg>
