<svg width="139px" height="19px" viewBox="0 0 139 19" version="1.1" xmlns="http://www.w3.org/2000/svg" xmlns:xlink="http://www.w3.org/1999/xlink">
    <defs>
        <polygon id="path-1" points="0 0.0305745288 7.73736608 0.0305745288 7.73736608 18.6335214 0 18.6335214"></polygon>
        <polygon id="path-3" points="0.13507253 0.114695603 6.59920046 0.114695603 6.59920046 6.57902456 0.13507253 6.57902456"></polygon>
    </defs>
    <g id="Page-1" stroke="none" stroke-width="1" fill="none" fill-rule="evenodd">
        <g id="main-menu" transform="translate(-108.000000, -30.000000)">
            <g id="header">
                <g id="Group-21" transform="translate(108.000000, 30.000000)">
                    <g id="Group-3" transform="translate(0.000000, 0.152964)">
                        <mask id="mask-2" fill="white">
                            <use xlink:href="#path-1"></use>
                        </mask>
                        <g id="Clip-2"></g>
                        <path d="M6.06079269,6.97426385 C7.12642376,6.97426385 7.73736608,6.39347573 7.73736608,5.38066019 C7.73736608,4.42742204 7.08037007,3.78723929 6.10246031,3.78723929 L3.68500742,3.78723929 L3.68500742,1.99717647 C3.68500742,0.706028555 2.75808567,0.0305745288 1.84249457,0.0305745288 C0.926903484,0.0305745288 -1.82752713e-05,0.706028555 -1.82752713e-05,1.99717647 L-1.82752713e-05,14.3432187 C-1.82752713e-05,17.3103918 1.18257453,18.6335214 3.83413364,18.6335214 C5.27111822,18.6335214 6.09259166,18.2643609 6.70298572,17.9052519 C7.1699189,17.645743 7.33622387,17.0951091 7.33622387,16.666554 C7.33622387,15.8726762 6.80532724,14.9883358 6.04343118,14.9883358 C5.93780011,14.9883358 5.83125528,15.0060628 5.71630383,15.0446236 C5.67609823,15.0608886 5.63132381,15.0811742 5.58179783,15.1040183 C5.3813181,15.1961256 5.10682353,15.322225 4.70531582,15.322225 C4.23015877,15.322225 3.68500742,15.1542753 3.68500742,13.8454003 L3.68500742,6.97426385 L6.06079269,6.97426385 Z" id="Fill-1" fill="#1D1C39" mask="url(#mask-2)"></path>
                    </g>
                    <path d="M14.5815465,6.6276916 C15.0481142,6.45791433 15.5117579,6.37183781 15.9598675,6.37183781 C17.4933455,6.37183781 18.5648247,7.36217476 19.0957213,8.34922216 L12.2298846,10.848 C11.916281,9.36386522 12.3475774,7.44075842 14.5815465,6.6276916 M21.955984,13.4816493 C21.5913923,13.4816493 21.230273,13.6150588 20.9115523,13.8676231 L20.8596505,13.9136768 C20.2163609,14.4873375 19.4769435,14.921558 18.5997304,15.2410097 C17.9441965,15.479502 17.3021862,15.6004843 16.6914266,15.6004843 C15.099285,15.6004843 13.7604386,14.7495877 13.0742022,13.3138824 L21.5451559,10.2310268 C22.879068,9.74527013 23.0581656,8.75858824 22.7809298,7.99705768 C21.7469149,5.15634951 19.3104557,3.39168932 16.4227801,3.39168932 C15.4810554,3.39168932 14.5020491,3.57425928 13.5129914,3.93428212 C11.3413409,4.72468761 9.79452199,6.15015877 9.03938778,8.05645231 C8.35534437,9.78383095 8.37160937,11.8153101 9.08544146,13.7766122 C10.2404386,16.9501131 12.6973661,18.7701473 15.8262753,18.7701473 C16.4182113,18.7701473 17.038474,18.7039909 17.6693364,18.5731399 C18.2408041,18.4547162 18.7718835,18.3050417 19.2927287,18.1153444 C20.709976,17.5999817 22.0005757,16.8552644 23.0254529,15.9623347 L23.0345905,15.9544763 L23.0426316,15.9453387 C23.3823689,15.5595477 23.5176059,15.1006556 23.423671,14.6529115 C23.2838652,13.9851331 22.6530029,13.4816493 21.955984,13.4816493" id="Fill-4" fill="#1D1C39"></path>
                    <path d="M36.1716231,11.1351959 C36.1716231,13.295333 34.9451696,15.4752073 32.2049754,15.4752073 C29.8571513,15.4752073 28.2796299,13.7476459 28.2796299,11.176498 C28.2796299,8.55600685 29.8739646,6.79536722 32.2464603,6.79536722 C34.2002696,6.79536722 36.1716231,8.13732039 36.1716231,11.1351959 M38.0969229,3.48388806 C37.0051582,3.48388806 36.2127424,4.25875957 36.2127424,5.32621816 L36.2127424,5.38488178 C35.1281051,4.15477327 33.5195157,3.48388806 31.6240046,3.48388806 C27.3453981,3.48388806 24.4705151,6.55870246 24.4705151,11.1351959 C24.4705151,15.7116893 27.2953238,18.7865037 31.49955,18.7865037 C33.5604523,18.7865037 35.2399497,18.0383141 36.2958949,16.6654757 L36.2958949,16.9443564 C36.2958949,18.3025745 37.226289,18.7865037 38.0969229,18.7865037 C39.1822913,18.7865037 39.856466,18.0807127 39.856466,16.9443564 L39.856466,5.32621816 C39.856466,4.20704055 39.1658435,3.48388806 38.0969229,3.48388806" id="Fill-6" fill="#1D1C39"></path>
                    <path d="M59.2718949,3.48377841 C57.1077373,3.48377841 55.4344535,4.44158538 54.6175488,6.12875842 C53.7218778,4.39607995 52.1116436,3.48377841 49.9357898,3.48377841 C48.3162353,3.48377841 46.867189,4.12560594 46.0102616,5.19068875 C45.9841279,4.19834152 45.217663,3.48377841 44.168297,3.48377841 C43.2305928,3.48377841 42.284482,4.07918675 42.284482,5.40907824 L42.284482,16.9442467 C42.284482,18.1325049 42.9387367,18.7867596 44.1268121,18.7867596 C45.3066636,18.7867596 46.0109926,18.0979646 46.0109926,16.9442467 L46.0109926,10.0561142 C46.0109926,7.78230497 47.0241736,6.62913535 49.0225745,6.62913535 C50.9857042,6.62913535 51.7865266,7.71834152 51.7865266,10.3885414 L51.7865266,16.9025791 C51.7865266,18.1177019 52.4407813,18.7867596 53.6286739,18.7867596 C54.8258869,18.7867596 55.5124889,18.0999749 55.5124889,16.9025791 L55.5124889,10.4711456 C55.5124889,7.88592576 56.5115979,6.62913535 58.5670177,6.62913535 C60.5036482,6.62913535 61.330056,7.77810166 61.330056,10.4711456 L61.330056,16.9025791 C61.330056,18.1177019 61.9843107,18.7867596 63.1722033,18.7867596 C64.3695991,18.7867596 65.0560183,18.0999749 65.0560183,16.9025791 L65.0560183,10.4711456 C65.0560183,5.83470931 63.1100674,3.48377841 59.2718949,3.48377841" id="Fill-8" fill="#1D1C39"></path>
                    <path d="M87.5426979,3.48394289 C86.7241485,3.48394289 86.0388258,4.07350314 85.711333,5.0576265 L82.564514,13.9465357 L79.4584489,5.10020788 C79.1212701,4.12997373 78.6949081,3.48394289 77.7093227,3.48394289 C76.6564843,3.48394289 76.2674038,4.05266933 75.9188943,5.09965962 L72.8120982,13.9465357 L69.6671068,5.0610988 C69.3381519,4.07350314 68.6531947,3.48394289 67.8342798,3.48394289 C67.050819,3.48394289 66.2404934,4.12650143 66.2404934,5.20163564 C66.2404934,5.5461245 66.3190771,5.88915134 66.5025608,6.34731239 L70.7352964,17.1375808 C71.1400937,18.1273695 71.6481462,18.7867413 72.8128292,18.7867413 C74.0875294,18.7867413 74.5721896,17.9016699 74.851984,17.1313672 L77.7071296,9.34884295 L80.4818641,17.1262501 C80.8490143,18.2280662 81.5495054,18.7867413 82.563783,18.7867413 C83.5321896,18.7867413 84.2454734,18.2315385 84.6846282,17.134474 L88.8714929,6.31313764 C89.0526008,5.90596459 89.1370326,5.5527036 89.1370326,5.20163564 C89.1370326,4.2224466 88.4517099,3.48394289 87.5426979,3.48394289" id="Fill-10" fill="#1D1C39"></path>
                    <path d="M97.0181885,15.8482239 C94.5713124,15.8482239 93.0513581,14.0422616 93.0513581,11.1350314 C93.0513581,8.32246716 94.6084112,6.50499143 97.0181885,6.50499143 C99.4279657,6.50499143 100.984836,8.32246716 100.984836,11.1350314 C100.984836,13.9982182 99.4279657,15.8482239 97.0181885,15.8482239 M97.0181885,3.52539121 C94.6012838,3.52539121 92.5995934,4.31890348 91.2294963,5.82021702 C90.0015808,7.166008 89.325213,9.05347801 89.325213,11.1350314 C89.325213,13.2196916 90.0013981,15.1144717 91.2291308,16.4701314 C92.6014209,17.9855168 94.6032941,18.786522 97.0181885,18.786522 C102.69595,18.786522 104.710798,14.6647173 104.710798,11.1350314 C104.710798,7.62453455 102.69595,3.52539121 97.0181885,3.52539121" id="Fill-12" fill="#1D1C39"></path>
                    <path d="M113.711497,3.48377841 C112.258613,3.48377841 110.928174,4.09490348 109.988094,5.17753055 C109.912069,4.2308715 109.11746,3.48377841 108.151794,3.48377841 C107.118511,3.48377841 106.309099,4.29319018 106.309099,5.32629126 L106.309099,16.9442467 C106.309099,18.1538869 107.236021,18.7867596 108.151794,18.7867596 C109.067203,18.7867596 109.993942,18.1538869 109.993942,16.9442467 L109.993942,11.4254803 C109.993942,8.09280183 110.907157,6.67062022 113.047557,6.67062022 C113.389487,6.67062022 113.58686,6.7163084 113.777654,6.7607173 C113.9467,6.80000914 114.106243,6.83692519 114.334136,6.83692519 C115.212628,6.83692519 115.802737,6.17974643 115.802737,5.20165391 C115.802737,4.15795317 114.981812,3.48377841 113.711497,3.48377841" id="Fill-14" fill="#1D1C39"></path>
                    <path d="M124.299203,11.1741039 L128.324331,6.98815306 C128.884103,6.42801599 129.412624,5.89876413 129.412624,5.16026042 C129.412624,4.20464649 128.691847,3.48368704 127.736233,3.48368704 C126.987495,3.48368704 126.456416,4.05844432 125.942698,4.61419532 L121.072704,9.64647401 L121.072704,2.02513764 C121.072704,1.00921531 120.246296,0.182807539 119.230739,0.182807539 C118.214451,0.182807539 117.387678,1.00921531 117.387678,2.02513764 L117.387678,16.9441553 C117.387678,17.9600777 118.214451,18.7864854 119.230739,18.7864854 C120.246296,18.7864854 121.072704,17.9600777 121.072704,16.9441553 L121.072704,12.4188327 L125.946901,17.4880274 C126.032795,17.5741039 126.117044,17.662008 126.200745,17.749181 C126.689608,18.2592439 127.195285,18.7864854 127.944023,18.7864854 C128.830191,18.7864854 129.578929,18.0379303 129.578929,17.1515797 C129.578929,16.5077419 129.142332,16.0172336 128.695319,15.5702204 L124.299203,11.1741039 Z" id="Fill-16" fill="#1D1C39"></path>
                    <g id="Group-20" transform="translate(131.581953, 12.214643)">
                        <mask id="mask-4" fill="white">
                            <use xlink:href="#path-3"></use>
                        </mask>
                        <g id="Clip-19"></g>
                        <path d="M3.36705425,0.114695603 C1.58503255,0.114695603 0.13507253,1.56465563 0.13507253,3.34686008 C0.13507253,5.12888178 1.58503255,6.57902456 3.36705425,6.57902456 C5.14925871,6.57902456 6.59921873,5.12888178 6.59921873,3.34686008 C6.59921873,1.56465563 5.14925871,0.114695603 3.36705425,0.114695603" id="Fill-18" fill="#FF22B1" mask="url(#mask-4)"></path>
                    </g>
                </g>
            </g>
        </g>
        <g id="Page"></g>
    </g>
</svg>
